<svg width="33" height="33" viewBox="0 0 33 33" fill="none" xmlns="http://www.w3.org/2000/svg">
<path d="M25.6667 0H7.33333C3.2835 0 0 3.2835 0 7.33333V25.6667C0 29.7165 3.2835 33 7.33333 33H17.6385V20.2382H13.343V15.2423H17.6385V11.5665C17.6385 7.30583 20.2437 4.983 24.046 4.983C25.3275 4.97933 26.6072 5.04533 27.8813 5.1755V9.6305H25.2633C23.1917 9.6305 22.7883 10.6095 22.7883 12.0542V15.235H27.7383L27.0948 20.2308H22.759V33H25.6667C29.7165 33 33 29.7165 33 25.6667V7.33333C33 3.2835 29.7165 0 25.6667 0Z" fill="#7EB4D8"/>
</svg>
