<svg width="33" height="33" viewBox="0 0 33 33" fill="none" xmlns="http://www.w3.org/2000/svg">
<path d="M29.3333 0H3.66667C1.64083 0 0 1.64083 0 3.66667V29.3333C0 31.3592 1.64083 33 3.66667 33H29.3333C31.3592 33 33 31.3592 33 29.3333V3.66667C33 1.64083 31.3592 0 29.3333 0ZM8.68633 25.6667C7.4085 25.6667 6.37267 24.6308 6.37267 23.353V15.1452C6.3745 13.8692 7.41033 12.8333 8.68633 12.8333C9.96417 12.8333 11 13.8692 11 15.147V23.3548C11 24.6308 9.96417 25.6667 8.68633 25.6667ZM8.60567 10.4812C7.19217 10.4812 6.248 9.53883 6.248 8.28117C6.248 7.0235 7.19033 6.08117 8.7615 6.08117C10.175 6.08117 11.1192 7.0235 11.1192 8.28117C11.1192 9.53883 10.1768 10.4812 8.60567 10.4812ZM25.2615 25.6667C24.0258 25.6667 23.023 24.6638 23.023 23.4282V18.6523C23.023 16.7127 21.8295 16.5 21.3822 16.5C20.9348 16.5 19.4425 16.5642 19.4425 18.6523V23.4282C19.4425 24.6638 18.4397 25.6667 17.204 25.6667H17.0555C15.8198 25.6667 14.817 24.6638 14.817 23.4282V15.147C14.817 13.8692 15.8528 12.8333 17.1307 12.8333C18.4085 12.8333 19.4443 13.8692 19.4443 15.147C19.4443 15.147 19.9613 12.8333 23.474 12.8333C25.7088 12.8333 27.5 14.6245 27.5 18.6523V23.4282C27.5 24.6638 26.4972 25.6667 25.2615 25.6667Z" fill="#7EB4D8"/>
</svg>
