<svg width="33" height="33" viewBox="0 0 33 33" fill="none" xmlns="http://www.w3.org/2000/svg">
<path d="M9.16667 0C4.10483 0 0 4.10483 0 9.16667V23.8333C0 28.8952 4.10483 33 9.16667 33H23.8333C28.8952 33 33 28.8952 33 23.8333V9.16667C33 4.10483 28.8952 0 23.8333 0H9.16667ZM27.5 3.66667C28.512 3.66667 29.3333 4.488 29.3333 5.5C29.3333 6.512 28.512 7.33333 27.5 7.33333C26.488 7.33333 25.6667 6.512 25.6667 5.5C25.6667 4.488 26.488 3.66667 27.5 3.66667ZM16.5 7.33333C21.5618 7.33333 25.6667 11.4382 25.6667 16.5C25.6667 21.5618 21.5618 25.6667 16.5 25.6667C11.4382 25.6667 7.33333 21.5618 7.33333 16.5C7.33333 11.4382 11.4382 7.33333 16.5 7.33333ZM16.5 11C15.0413 11 13.6424 11.5795 12.6109 12.6109C11.5795 13.6424 11 15.0413 11 16.5C11 17.9587 11.5795 19.3576 12.6109 20.3891C13.6424 21.4205 15.0413 22 16.5 22C17.9587 22 19.3576 21.4205 20.3891 20.3891C21.4205 19.3576 22 17.9587 22 16.5C22 15.0413 21.4205 13.6424 20.3891 12.6109C19.3576 11.5795 17.9587 11 16.5 11Z" fill="#7EB4D8"/>
</svg>
