<svg width="18" height="21" viewBox="0 0 18 21" fill="none" xmlns="http://www.w3.org/2000/svg">
<path d="M9 0.519531C4.03 0.519531 0 4.54953 0 9.51953C0 13.6895 2.84 17.1895 6.69 18.2095L9 20.5195L11.31 18.2095C15.16 17.1895 18 13.6895 18 9.51953C18 4.54953 13.97 0.519531 9 0.519531ZM9 2.51953C10.66 2.51953 12 3.85953 12 5.51953C12 7.17953 10.66 8.51953 9 8.51953C7.34 8.51953 6 7.17953 6 5.51953C6 3.85953 7.34 2.51953 9 2.51953ZM9 16.8195C6.5 16.8195 4.29 15.5395 3 13.5995C3.03 11.6095 7 10.5195 9 10.5195C10.99 10.5195 14.97 11.6095 15 13.5995C13.71 15.5395 11.5 16.8195 9 16.8195Z" fill="#778899"/>
</svg>
