<svg width="18" height="18" viewBox="0 0 18 18" fill="none" xmlns="http://www.w3.org/2000/svg">
<rect width="18" height="18" rx="4" fill="#778899"/>
<path d="M14.34 11.2533C13.52 11.2533 12.7267 11.12 11.9867 10.88C11.7533 10.8 11.4933 10.86 11.3133 11.04L10.2667 12.3533C8.38 11.4533 6.61333 9.75333 5.67333 7.8L6.97333 6.69333C7.15333 6.50667 7.20667 6.24667 7.13333 6.01333C6.88667 5.27333 6.76 4.48 6.76 3.66C6.76 3.3 6.46 3 6.1 3H3.79333C3.43333 3 3 3.16 3 3.66C3 9.85333 8.15333 15 14.34 15C14.8133 15 15 14.58 15 14.2133V11.9133C15 11.5533 14.7 11.2533 14.34 11.2533Z" fill="white"/>
</svg>
